<svg xmlns="http://www.w3.org/2000/svg" width="613" height="613" viewBox="0 0 612.7 612.7"><path d="M593.2 286.7h-82.7c-10.8 0-19.1 8.4-19.1 19.1s8.3 19.4 19.1 19.4h82.7c10.8 0 19.1-8.7 19.1-19.4S604 286.7 593.2 286.7z"/><path d="M464.3 175.9l58.4-59.1c7.5-7.6 7.7-18.8 0-27.1 -7.2-7.7-19.2-8-27.1 0l-58.4 59.1c-7.4 7.6-8 19.1 0 27.1C444.5 183.1 457 183.2 464.3 175.9z"/><path d="M464.3 436.8c-8-8-20.2-8-27.1 0 -8 7-7.5 19.6 0 27.1l58.4 58.3c5.9 7.3 21.2 7.3 27.1 0 8-6.9 8-19.1 0-27.1L464.3 436.8z"/><path d="M306.2 121.7c10.8 0 19.5-8.4 19.5-19.1V19.1C325.6 8.4 317 0 306.2 0s-19.1 8.4-19.1 19.1v83.4C287.1 113.3 295.4 121.7 306.2 121.7z"/><path d="M306.2 491c-10.8 0-19.1 8.4-19.1 19.1v83.4c0 10.1 8.3 19.1 19.1 19.1s19.5-9 19.5-19.8v-82.7C325.6 499.4 317 491 306.2 491z"/><path d="M411.1 200.8c-29-29-63.9-43.7-105-43.7 -41 0-76.1 14.6-105.3 43.7 -28.8 28.8-43.4 64-43.4 105s14.4 76.3 43.4 105.3c29 29.1 64.3 43.4 105.3 43.4 41 0 76.1-14.6 105-43.4 29.2-29.1 43.8-64.3 43.8-105.3S440.2 229.9 411.1 200.8zM384.4 384c-21.5 21.5-47.6 32.3-78.2 32.3 -30.2 0-56.3-10.8-77.8-32.3 -21.5-21.6-32.3-47.7-32.3-78.2 0-30.2 10.8-56.3 32.3-77.8 21.5-21.6 47.6-32.3 77.8-32.3 30.6 0 56.6 10.8 78.2 32.3 21.6 21.6 32.3 47.6 32.3 77.8C416.7 336.4 405.9 362.5 384.4 384z"/><path d="M149.1 175.9c3.8 3.8 8.3 5.6 13.6 5.6 4.5 0 9-1.8 13.6-5.6 6.9-8 6.9-20.2 0-27.1l-59.1-59.1c-6.9-6.9-20.2-6.9-27.1 0 -8 8-7.5 19.6 0 27.1L149.1 175.9z"/><path d="M148.4 436.8l-58.4 58.4c-8 7.9-8 19.8 0 27.8 7.3 7.3 19.8 7.3 27.1 0l59.1-59.1c7.5-7.5 6.9-20.2 0-27.1C168.2 428.8 156.4 428.8 148.4 436.8z"/><path d="M122 305.8c0-10.7-8.3-19.1-19.1-19.1H19.5c-10.8 0-19.1 8.4-19.1 19.1s8.3 19.4 19.1 19.4h83.4C113.6 325.3 122 316.6 122 305.8z"/></svg>